<svg xmlns="http://www.w3.org/2000/svg"><style>:root svg:not(:target){display:none}</style><svg viewBox="0 0 112 16" fill="none" id="academy-logo"><path d="M9.17 3.6v8.4h-.87v-3.88h-5.26v3.88h-.89v-8.4h.9v3.74h5.25v-3.74h.87Zm4.38.77h-2.96v-.77h6.8v.77h-2.96v7.63h-.88v-7.63Zm13.98-.77v8.4h-.85v-6.72l-3.3 5.65h-.42l-3.3-5.61v6.68h-.85v-8.4h.73l3.65 6.23 3.6-6.23h.74Zm2.74 0h.88v7.63h4.7v.77h-5.58v-8.4Zm15.47 6.16h-4.68l-1 2.24h-.93l3.84-8.4h.88l3.84 8.4h-.94l-1-2.24Zm-.32-.72-2.02-4.52-2.01 4.52h4.03Zm6.03 3.02a3.6 3.6 0 0 1-1.68-.4 2.98 2.98 0 0 1-1.15-1.15 3.33 3.33 0 0 1-.42-1.67c0-.61.14-1.16.42-1.65.28-.49.66-.87 1.15-1.14.5-.27 1.06-.41 1.68-.41.55 0 1.03.1 1.45.32.44.21.78.52 1.02.93l-.63.43a2 2 0 0 0-.8-.7 2.47 2.47 0 0 0-2.28.07c-.35.2-.64.5-.85.87-.2.38-.3.8-.3 1.28 0 .5.1.92.3 1.3a2.27 2.27 0 0 0 2.1 1.16 2.04 2.04 0 0 0 1.83-.92l.63.43c-.24.41-.58.72-1.02.94-.43.2-.91.31-1.45.31Zm6.36-6.42c.82 0 1.45.2 1.9.62.43.41.65 1.02.65 1.83v3.91h-.81v-.98a2 2 0 0 1-.86.76c-.36.19-.8.28-1.32.28a2.6 2.6 0 0 1-1.68-.5 1.63 1.63 0 0 1-.62-1.34c0-.53.2-.96.58-1.3.39-.32 1-.48 1.86-.48h2v-.39c0-.54-.15-.95-.46-1.23-.3-.3-.74-.44-1.33-.44a3.3 3.3 0 0 0-2.1.75l-.38-.64c.32-.27.7-.48 1.15-.62.45-.15.92-.23 1.42-.23Zm-.3 5.75c.48 0 .89-.11 1.23-.33a2 2 0 0 0 .77-.96v-1.03h-1.98c-1.08 0-1.62.38-1.62 1.13 0 .37.14.66.42.88a2 2 0 0 0 1.18.3Zm10.95-8.3v8.91h-.82v-1.25c-.25.43-.6.75-1.02.97-.41.23-.88.34-1.41.34a3.2 3.2 0 0 1-1.61-.4 2.92 2.92 0 0 1-1.13-1.15 3.37 3.37 0 0 1-.4-1.67c0-.62.13-1.18.4-1.66.27-.5.65-.87 1.13-1.13a3.2 3.2 0 0 1 2.99-.09c.41.21.75.52 1.02.93v-3.8h.85Zm-3.18 8.21c.44 0 .84-.1 1.19-.3.36-.2.64-.5.84-.87.2-.38.31-.8.31-1.29 0-.48-.1-.9-.31-1.28a2.3 2.3 0 0 0-2.03-1.18c-.45 0-.85.1-1.21.32-.35.2-.63.48-.84.86-.2.38-.3.8-.3 1.28s.1.91.3 1.29a2.2 2.2 0 0 0 2.05 1.17Zm11.05-2.2h-5.28c.05.66.3 1.2.75 1.6.46.4 1.04.6 1.73.6a2.42 2.42 0 0 0 1.93-.83l.48.56c-.28.33-.63.59-1.05.77a3.5 3.5 0 0 1-1.38.26c-.65 0-1.23-.14-1.73-.4-.5-.29-.88-.67-1.16-1.16a3.27 3.27 0 0 1-.42-1.66c0-.61.13-1.16.4-1.65a2.97 2.97 0 0 1 2.68-1.55 2.88 2.88 0 0 1 2.66 1.55c.27.48.4 1.03.4 1.65l-.01.27Zm-3.05-2.73a2.2 2.2 0 0 0-2.24 2.1h4.48a2.25 2.25 0 0 0-.7-1.51 2.1 2.1 0 0 0-1.54-.59Zm12.67-.73c.79 0 1.4.23 1.86.68.45.46.68 1.13.68 2.02v3.66h-.85v-3.58c0-.65-.16-1.15-.48-1.5-.31-.34-.76-.51-1.33-.51a2 2 0 0 0-1.55.61c-.38.4-.57.96-.57 1.67v3.31h-.85v-3.58c0-.65-.16-1.15-.48-1.5-.3-.34-.76-.51-1.34-.51-.65 0-1.17.2-1.55.61-.38.4-.56.96-.56 1.67v3.31h-.86v-6.31h.82v1.15c.22-.38.54-.68.94-.89a3.05 3.05 0 0 1 2.74.03c.4.22.69.55.88 1 .23-.42.56-.75 1-.98.44-.24.94-.36 1.5-.36Zm10.04.05-3.16 7.07c-.25.59-.55 1-.89 1.26-.33.24-.74.37-1.2.37-.31 0-.6-.05-.86-.15-.26-.1-.5-.24-.68-.43l.4-.63c.31.32.7.48 1.14.48.3 0 .54-.08.74-.24.2-.16.4-.44.57-.82l.28-.61-2.82-6.3h.89l2.37 5.36 2.38-5.36h.84Zm15.23.06-5.25-3.25-5.19 3.25v-4.34l5.22-.58 5.22.58v4.34Zm0 .58-2.1 1.3-3.14-1.97v.57l2.68 1.68-.46.29-2.22-1.4v.58l1.75 1.1-.41.29h-.01l-1.33-.82v.58l.87.53-.89.56-5.16-3.23 5.17-3.28 5.24 3.22Zm0 5.44-5.22 3.27-5.22-3.27v-4.74l5.2 3.25v.59l-3.56-2.23v.57l3.58 2.26v.6l-3.57-2.23v.57l3.57 2.26 3.6-2.27v-2.44l1.62-1.01v4.82Zm-5.22-11.77-6 .66v11.58l6 3.76 6-3.76v-11.58l-6-.66Z" fill="#BDBDBD"></path></svg><svg viewBox="0 0 13 16" fill="none" id="address-icon"><path fill-rule="evenodd" clip-rule="evenodd" d="M11.8 6.5c0 2.33-1.37 4.42-2.91 6.01a17.54 17.54 0 0 1-2.39 2.05 16.93 16.93 0 0 1-2.39-2.05c-1.54-1.6-2.91-3.68-2.91-6.01a5.3 5.3 0 1 1 10.6 0Zm1.2 0c0 5.59-6.5 9.5-6.5 9.5s-6.5-3.91-6.5-9.5a6.5 6.5 0 0 1 13 0Zm-4.2 0a2.3 2.3 0 1 1-4.6 0 2.3 2.3 0 0 1 4.6 0Zm1.2 0a3.5 3.5 0 1 1-7 0 3.5 3.5 0 0 1 7 0Z" fill="#7859CF"></path></svg><svg viewBox="0 0 20 16" fill="none" id="basket-plus"><path fill-rule="evenodd" clip-rule="evenodd" d="M13.67 13.52v-.02h1.35l-.03.21a2.67 2.67 0 0 1-2.64 2.29h-8.7a2.67 2.67 0 0 1-2.64-2.29l-.82-5.71-.19-1.33h4.55l-.22-2.68a3.68 3.68 0 0 1 7.29-.99h-1.37a2.35 2.35 0 0 0-4.59.88l.23 2.79h3.61v1.33h-3.44l.22 2.67h3.44l.01-.17h1.34l-.01.17h1.44v1.33h-1.55l-.23 2.67h1.63c.67 0 1.23-.5 1.32-1.15Zm-8.95-5.52h-3.18l.38 2.67h3.02l-.22-2.67Zm1.9 6.67-.23-2.67h3.22l-.22 2.67h-2.78Zm-1.57-2.67.23 2.67h-1.63c-.67 0-1.23-.5-1.32-1.15l-.22-1.52h2.94Zm10.75-2v-2.8h-2.8v-1.4h2.8v-2.8h1.4v2.8h2.8v1.4h-2.8v2.8h-1.4Z" fill="#fff"></path></svg><svg viewBox="0 0 16 16" fill="none" id="basket"><path fill-rule="evenodd" clip-rule="evenodd" d="m5.66 3.88.23 2.79h4.22l.23-2.8a2.35 2.35 0 1 0-4.68 0Zm5.78 2.79.23-2.68a3.68 3.68 0 1 0-7.34 0l.23 2.68h-4.56l.19 1.33.82 5.71a2.67 2.67 0 0 0 2.64 2.29h8.7c1.33 0 2.46-.98 2.64-2.29l.82-5.71.19-1.33h-4.55Zm-.1 1.33h-.06l-.22 2.67h3.02l.38-2.67h-3.13Zm-1.4 0h-3.88l.22 2.67h3.44l.22-2.67Zm-5.22 0h-3.18l.38 2.67h3.02l-.22-2.67Zm1.9 6.67-.23-2.67h3.22l-.22 2.67h-2.78Zm4.33-2.67-.23 2.67h1.63c.67 0 1.23-.5 1.32-1.15l.22-1.52h-2.94Zm-5.9 0 .23 2.67h-1.63c-.67 0-1.23-.5-1.32-1.15l-.22-1.52h2.94Z" fill="#333"></path></svg><svg viewBox="0 0 16 16" fill="none" id="burger"><path fill-rule="evenodd" clip-rule="evenodd" d="M0 2h16v1.5h-16v-1.5Zm0 5.25h16v1.5h-16v-1.5Zm16 5.25h-16v1.5h16v-1.5Z" fill="#333"></path></svg><svg viewBox="0 0 20 20" fill="none" id="button-next"><path fill-rule="evenodd" clip-rule="evenodd" d="m6.28 0-1.28 1.32 8.43 8.68-8.43 8.68 1.28 1.32 9.72-10-9.72-10Z" fill="#7859CF"></path></svg><svg viewBox="0 0 20 20" fill="none" id="button-prev"><path fill-rule="evenodd" clip-rule="evenodd" d="m13.72 0 1.28 1.32-8.43 8.68 8.43 8.68-1.28 1.32-9.72-10 9.72-10Z" fill="#7859CF"></path></svg><svg viewBox="0 0 20 20" fill="none" id="ok-colored"><path fill-rule="evenodd" clip-rule="evenodd" d="M1.4 1.4c-1.4 1.41-1.4 3.67-1.4 8.2v.91c0 4.46 0 6.7 1.4 8.09 1.41 1.4 3.67 1.4 8.2 1.4h.91c4.46 0 6.7 0 8.09-1.4 1.4-1.41 1.4-3.67 1.4-8.2v-.91c0-4.46 0-6.7-1.4-8.09-1.41-1.4-3.67-1.4-8.2-1.4h-.91c-4.46 0-6.7 0-8.09 1.4Zm8.62 8.8a3.03 3.03 0 1 0-.01-6.07 3.03 3.03 0 0 0 0 6.07Zm0-4.28a1.25 1.25 0 0 1 0 2.5c-.69 0-1.25-.56-1.25-1.25a1.23 1.23 0 0 1 1.25-1.25Zm1.21 6.76a5.73 5.73 0 0 0 1.76-.72.88.88 0 0 0 .28-1.24.88.88 0 0 0-1.24-.27 3.85 3.85 0 0 1-4.08 0 .9.9 0 0 0-1.23.27.9.9 0 0 0 .3 1.22 5.8 5.8 0 0 0 1.77.72l-1.69 1.69a.89.89 0 0 0 0 1.25c.18.18.4.25.63.25.24 0 .46-.09.64-.25l1.67-1.67 1.67 1.67a.89.89 0 0 0 1.25-1.25l-1.73-1.67Z" fill="#7859CF"></path></svg><svg viewBox="0 0 20 20" fill="none" id="ok"><path fill-rule="evenodd" clip-rule="evenodd" d="M1.4 1.4c-1.4 1.41-1.4 3.67-1.4 8.2v.91c0 4.46 0 6.7 1.4 8.09 1.41 1.4 3.67 1.4 8.2 1.4h.91c4.46 0 6.7 0 8.09-1.4 1.4-1.41 1.4-3.67 1.4-8.2v-.91c0-4.46 0-6.7-1.4-8.09-1.41-1.4-3.67-1.4-8.2-1.4h-.91c-4.46 0-6.7 0-8.09 1.4Zm8.62 8.8a3.03 3.03 0 1 0-.01-6.07 3.03 3.03 0 0 0 0 6.07Zm0-4.28a1.25 1.25 0 0 1 0 2.5c-.69 0-1.25-.56-1.25-1.25a1.23 1.23 0 0 1 1.25-1.25Zm1.21 6.76a5.73 5.73 0 0 0 1.76-.72.88.88 0 0 0 .28-1.24.88.88 0 0 0-1.24-.27 3.85 3.85 0 0 1-4.08 0 .9.9 0 0 0-1.23.27.9.9 0 0 0 .3 1.22 5.8 5.8 0 0 0 1.77.72l-1.69 1.69a.89.89 0 0 0 0 1.25c.18.18.4.25.63.25.24 0 .46-.09.64-.25l1.67-1.67 1.67 1.67a.89.89 0 0 0 1.25-1.25l-1.73-1.67Z" fill="#BDBDBD"></path></svg><svg viewBox="0 0 12 12" fill="none" id="open-menu"><path fill-rule="evenodd" clip-rule="evenodd" d="m5.03 6-5.03-5.03.97-.97 5.03 5.03 5.03-5.03.97.97-5.03 5.03 5.03 5.03-.97.97-5.03-5.03-5.03 5.03-.97-.97 5.03-5.03Z" fill="#333"></path></svg><svg viewBox="0 0 13 16" fill="none" id="phone-icon"><path fill-rule="evenodd" clip-rule="evenodd" d="M1.48 1.49a2.7 2.7 0 0 0-1.43 2.83l.35 1.77c.93 3.13 2.5 5.77 4.83 8.11l1.4 1.2c.86.72 2.17.8 3.24.2l2.23-1.25c.88-.49 1.17-1.53.63-2.26l-1.93-2.6c-.52-.7-1.6-.82-2.37-.26l-1.38.99a5.23 5.23 0 0 1-2.17-3.67l1.56-.66c.9-.37 1.33-1.33.96-2.11l-1.36-2.93c-.38-.82-1.46-1.1-2.33-.6l-2.23 1.24Zm-.2 2.53c-.12-.6.2-1.22.78-1.55l2.23-1.24c.22-.13.5-.06.59.15l1.36 2.93c.1.2-.02.43-.24.53l-2.43 1.02.02.42a6.28 6.28 0 0 0 3.07 5.16l.36.22 2.13-1.53c.2-.14.46-.11.59.06l1.93 2.61c.14.19.07.45-.15.57l-2.23 1.25c-.59.33-1.3.28-1.77-.12l-1.4-1.19a20.91 20.91 0 0 1-4.48-7.52l-.36-1.77Z" fill="#7859CF"></path></svg><svg viewBox="0 0 22 22" fill="none" id="pinterest-colored"><path d="M11 0a11 11 0 0 0-4 21.25c-.1-.87-.2-2.21.03-3.16l1.29-5.47s-.33-.66-.33-1.63c0-1.53.89-2.67 2-2.67.93 0 1.38.7 1.38 1.54 0 .95-.6 2.36-.9 3.67-.27 1.1.54 1.99 1.62 1.99 1.96 0 3.46-2.07 3.46-5.04 0-2.64-1.9-4.48-4.6-4.48a4.76 4.76 0 0 0-4.96 4.78c0 .94.36 1.96.82 2.5.09.12.1.21.07.32l-.3 1.25c-.05.2-.16.24-.37.15-1.38-.64-2.23-2.65-2.23-4.26 0-3.47 2.52-6.66 7.26-6.66 3.82 0 6.78 2.72 6.78 6.35 0 3.8-2.39 6.84-5.7 6.84-1.12 0-2.17-.58-2.52-1.26l-.69 2.62a12.3 12.3 0 0 1-1.37 2.88 11 11 0 1 0 3.26-21.51Z" fill="#7859CF"></path></svg><svg viewBox="0 0 22 22" fill="none" id="pinterest"><path d="M11 0a11 11 0 0 0-4 21.25c-.1-.87-.2-2.21.03-3.16l1.29-5.47s-.33-.66-.33-1.63c0-1.53.89-2.67 2-2.67.93 0 1.38.7 1.38 1.54 0 .95-.6 2.36-.9 3.67-.27 1.1.54 1.99 1.62 1.99 1.96 0 3.46-2.07 3.46-5.04 0-2.64-1.9-4.48-4.6-4.48a4.76 4.76 0 0 0-4.96 4.78c0 .94.36 1.96.82 2.5.09.12.1.21.07.32l-.3 1.25c-.05.2-.16.24-.37.15-1.38-.64-2.23-2.65-2.23-4.26 0-3.47 2.52-6.66 7.26-6.66 3.82 0 6.78 2.72 6.78 6.35 0 3.8-2.39 6.84-5.7 6.84-1.12 0-2.17-.58-2.52-1.26l-.69 2.62a12.3 12.3 0 0 1-1.37 2.88 11 11 0 1 0 3.26-21.51Z" fill="#BDBDBD"></path></svg><svg viewBox="0 0 10 10" fill="none" id="select-icon"><path fill-rule="evenodd" clip-rule="evenodd" d="m0 4.2 1.24-1.2 3.76 3.62 3.76-3.62 1.24 1.2-5 4.8-5-4.8Z" fill="#7859CF"></path></svg><svg viewBox="0 0 16 16" fill="none" id="user"><path fill-rule="evenodd" clip-rule="evenodd" d="M10.67 4a2.67 2.67 0 1 1-5.34 0 2.67 2.67 0 0 1 5.34 0Zm1.33 0a4 4 0 1 1-8 0 4 4 0 0 1 8 0Zm-8.8 8.31a7.55 7.55 0 0 1 4.8-1.64c1.84 0 3.56.6 4.8 1.64a4.83 4.83 0 0 1 1.87 3.69h1.33c0-1.77-.84-3.46-2.34-4.71a8.88 8.88 0 0 0-5.66-1.96c-2.12 0-4.16.7-5.66 1.96a6.16 6.16 0 0 0-2.34 4.71h1.33c0-1.33.63-2.66 1.87-3.69Z" fill="#333"></path></svg><svg viewBox="0 0 20 20" fill="none" id="vk-colored"><path fill-rule="evenodd" clip-rule="evenodd" d="M1.4 1.4c-1.4 1.41-1.4 3.67-1.4 8.2v.8c0 4.53 0 6.79 1.4 8.2 1.41 1.4 3.67 1.4 8.2 1.4h.8c4.53 0 6.79 0 8.2-1.4 1.4-1.41 1.4-3.67 1.4-8.2v-.8c0-4.53 0-6.79-1.4-8.2-1.41-1.4-3.67-1.4-8.2-1.4h-.8c-4.53 0-6.79 0-8.2 1.4Zm1.98 4.68c.1 5.2 2.7 8.33 7.26 8.33h.26v-2.98a4.11 4.11 0 0 1 3.45 2.98h2.37a6.58 6.58 0 0 0-3.43-4.18 6.35 6.35 0 0 0 2.93-4.15h-2.15c-.47 1.65-1.85 3.15-3.17 3.3v-3.3h-2.15v5.77c-1.33-.33-3.02-1.95-3.1-5.77h-2.27Z" fill="#7859CF"></path></svg><svg viewBox="0 0 20 20" fill="none" id="vk"><path fill-rule="evenodd" clip-rule="evenodd" d="M1.4 1.4c-1.4 1.41-1.4 3.67-1.4 8.2v.8c0 4.53 0 6.79 1.4 8.2 1.41 1.4 3.67 1.4 8.2 1.4h.8c4.53 0 6.79 0 8.2-1.4 1.4-1.41 1.4-3.67 1.4-8.2v-.8c0-4.53 0-6.79-1.4-8.2-1.41-1.4-3.67-1.4-8.2-1.4h-.8c-4.53 0-6.79 0-8.2 1.4Zm1.98 4.68c.1 5.2 2.7 8.33 7.26 8.33h.26v-2.98a4.11 4.11 0 0 1 3.45 2.98h2.37a6.58 6.58 0 0 0-3.43-4.18 6.35 6.35 0 0 0 2.93-4.15h-2.15c-.47 1.65-1.85 3.15-3.17 3.3v-3.3h-2.15v5.77c-1.33-.33-3.02-1.95-3.1-5.77h-2.27Z" fill="#BDBDBD"></path></svg></svg>